Handel Commemoration (DVD Thanks to Accatone-Poincare) 

George Frideric Handel:
Zadok the Priest, HWV 258
Esther, HWV 50a: Sinfonia
The ways of Zion do mourn, HWV 264, "Funeral Anthem"
Saul, HWV 53: March
Jubilate, HWV 279, "Utrecht": Glory be to the Father
Israel in Egypt, HWV 54 (excerpts)
Dettingen Te Deum, HWV 283: We praise Thee, oh God

Ulrike Fulde, soprano
Albrecht Sack, tenor
Felix Plock, bass
Hallenser Madrigalisten
MDR Rundfunkchor
Händelfestspielchor
Chor der Oper Halle

The English Concert
Händelfestspielorchester Halle 
Howard Arman, conductor

Recorded live from Marktkirche, Halle on 14 April 2009.

Format : Matroska
Format version : Version 2
File size : 2.36 GiB
Duration : 1h 42mn
Overall bit rate : 3 295 Kbps
Encoded date : UTC 2011-10-30 13:22:11
Writing application : mkvmerge v5.0.1 ('Es ist Sommer') built on Oct 9 2011 11:55:43
Writing library : libebml v1.2.2 + libmatroska v1.3.0

Video
ID : 1
Format : AVC
Format/Info : Advanced Video Codec
Format profile : High@L3.0
Format settings, CABAC : Yes
Format settings, ReFrames : 4 frames
Muxing mode : Header stripping
Codec ID : V_MPEG4/ISO/AVC
Duration : 1h 42mn
Bit rate : 2 781 Kbps
Width : 720 pixels
Height : 480 pixels
Display aspect ratio : 16:9
Original display aspect ratio : 16:9
Frame rate mode : Variable
Frame rate : 29.970 fps
Standard : NTSC
Color space : YUV
Chroma subsampling : 4:2:0
Bit depth : 8 bits
Scan type : Progressive
Bits/(Pixel*Frame) : 0.269
Stream size : 1.99 GiB (84%)
Title : AVC x.264
Writing library : x264 core 112

Audio
ID : 2
Format : AC-3
Format/Info : Audio Coding 3
Mode extension : CM (complete main)
Muxing mode : Header stripping
Codec ID : A_AC3
Duration : 1h 42mn
Bit rate mode : Constant
Bit rate : 448 Kbps
Channel(s) : 6 channels
Channel positions : Front: L C R, Side: L R, LFE
Sampling rate : 48.0 KHz
Bit depth : 16 bits
Compression mode : Lossy
Stream size : 328 MiB (14%)
Title : AC3 5.1
Language : English